<svg xmlns="http://www.w3.org/2000/svg" width="1320" height="880" viewBox="0 0 1320 880">
<defs></defs>
<rect x="0" y="0" width="1320" height="880" rx="36" fill="#F6F3EC"></rect>
<g transform="translate(71.9,418.4) rotate(45)"><rect x="-35.3" y="-35.3" width="70.5" height="70.5" rx="9.9" fill="#1F6B5C"></rect></g>
<path d="M540 688H814L567 405L819 0H558L415 252L295 154V0H74V688H295V394Z" fill="#0C2520" transform="translate(167.62,472.40) scale(0.15000,-0.15000)"></path>
<path d="M84 0V688H305V0Z" fill="#0C2520" transform="translate(292.07,472.40) scale(0.15000,-0.15000)"></path>
<path d="M470 512V0H249V512H23V688H695V512Z" fill="#0C2520" transform="translate(349.92,472.40) scale(0.15000,-0.15000)"></path>
<path d="M74 688H669V523H295V428H615V270H295V165H676V0H74Z" fill="#0C2520" transform="translate(457.72,472.40) scale(0.15000,-0.15000)"></path>
<path d="M470 512V0H249V512H23V688H695V512Z" fill="#1F6B5C" transform="translate(565.52,472.40) scale(0.15000,-0.15000)"></path>
<path d="M594 288 747 0H499L377 251H295V0H74V688H495Q569 688 621.5 659.5Q674 631 700.5 582.5Q727 534 727 477Q727 414 693.0 363.0Q659 312 594 288ZM440 531H295V404H440Q466 404 484.0 422.5Q502 441 502 468Q502 495 484.0 513.0Q466 531 440 531Z" fill="#1F6B5C" transform="translate(673.32,472.40) scale(0.15000,-0.15000)"></path>
<path d="M788 344Q788 170 691.0 79.0Q594 -12 416 -12Q238 -12 141.5 78.5Q45 169 45 344Q45 519 141.5 609.5Q238 700 416 700Q594 700 691.0 609.0Q788 518 788 344ZM271 376V312Q271 239 308.0 196.0Q345 153 416 153Q487 153 524.5 196.0Q562 239 562 312V376Q562 449 524.5 492.0Q487 535 416 535Q345 535 308.0 492.0Q271 449 271 376Z" fill="#1F6B5C" transform="translate(789.52,472.40) scale(0.15000,-0.15000)"></path>
<path d="M680 462V449Q680 385 652.0 333.0Q624 281 574.0 251.5Q524 222 460 222H295V0H74V688H460Q524 688 574.0 658.5Q624 629 652.0 577.5Q680 526 680 462ZM295 383H386Q421 383 438.5 401.0Q456 419 456 450V458Q456 490 438.5 507.5Q421 525 386 525H295Z" fill="#1F6B5C" transform="translate(913.97,472.40) scale(0.15000,-0.15000)"></path>
<path d="M788 344Q788 170 691.0 79.0Q594 -12 416 -12Q238 -12 141.5 78.5Q45 169 45 344Q45 519 141.5 609.5Q238 700 416 700Q594 700 691.0 609.0Q788 518 788 344ZM271 376V312Q271 239 308.0 196.0Q345 153 416 153Q487 153 524.5 196.0Q562 239 562 312V376Q562 449 524.5 492.0Q487 535 416 535Q345 535 308.0 492.0Q271 449 271 376Z" fill="#1F6B5C" transform="translate(1021.77,472.40) scale(0.15000,-0.15000)"></path>
<path d="M667 488V476H460V480Q460 510 438.0 530.0Q416 550 371 550Q327 550 303.5 537.0Q280 524 280 505Q280 478 312.0 465.0Q344 452 415 438Q498 421 551.5 402.5Q605 384 645.0 342.0Q685 300 686 228Q686 106 603.5 47.0Q521 -12 383 -12Q222 -12 132.5 42.0Q43 96 43 233H252Q252 181 279.0 163.5Q306 146 363 146Q405 146 432.5 155.0Q460 164 460 192Q460 217 429.5 229.5Q399 242 330 256Q246 274 191.0 293.5Q136 313 95.0 358.0Q54 403 54 480Q54 593 141.5 646.5Q229 700 363 700Q495 700 580.0 646.5Q665 593 667 488Z" fill="#1F6B5C" transform="translate(1146.22,472.40) scale(0.15000,-0.15000)"></path>
<path d="M76 0V686H281L389 304Q395 284 401.0 259.0Q407 234 412.5 211.0Q418 188 421 171H429Q431 186 435.0 208.0Q439 230 444.5 255.5Q450 281 457 305L565 686H768V0H638V347Q638 393 639.0 439.0Q640 485 641.5 518.0Q643 551 643 557H635Q633 548 625.0 518.0Q617 488 608.0 453.0Q599 418 592 393L479 0H359L246 392Q240 413 232.5 442.5Q225 472 217.5 503.0Q210 534 204 557H196Q197 530 198.0 492.5Q199 455 200.0 416.5Q201 378 201 347V0Z" fill="#6B7A73" transform="translate(468.69,542.40) scale(0.03000,-0.03000)"></path>
<path d="M391 -12Q284 -12 206.0 26.5Q128 65 86.5 144.0Q45 223 45 343Q45 464 86.5 542.5Q128 621 206.0 659.5Q284 698 391 698Q499 698 576.5 659.5Q654 621 695.5 542.5Q737 464 737 343Q737 223 695.5 144.0Q654 65 576.5 26.5Q499 -12 391 -12ZM391 98Q443 98 482.5 113.0Q522 128 549.0 157.5Q576 187 590.0 230.5Q604 274 604 331V353Q604 411 590.0 455.0Q576 499 549.0 528.5Q522 558 482.5 573.0Q443 588 391 588Q339 588 299.5 573.0Q260 558 233.0 528.5Q206 499 192.5 455.0Q179 411 179 353V331Q179 274 192.5 230.5Q206 187 233.0 157.5Q260 128 299.5 113.0Q339 98 391 98Z" fill="#6B7A73" transform="translate(508.01,542.40) scale(0.03000,-0.03000)"></path>
<path d="M76 0V686H437Q513 686 563.0 660.0Q613 634 638.0 586.0Q663 538 663 473Q663 406 633.0 354.5Q603 303 545 277L687 0H545L419 255H206V0ZM206 364H427Q477 364 504.0 393.0Q531 422 531 473Q531 506 519.0 528.5Q507 551 484.0 563.0Q461 575 427 575H206Z" fill="#6B7A73" transform="translate(545.47,542.40) scale(0.03000,-0.03000)"></path>
<path d="M76 0V686H611V575H206V406H567V295H206V111H617V0Z" fill="#6B7A73" transform="translate(580.98,542.40) scale(0.03000,-0.03000)"></path>
<path d="M244 0V574H25V686H594V574H374V0Z" fill="#6B7A73" transform="translate(635.14,542.40) scale(0.03000,-0.03000)"></path>
<path d="M76 0V686H206V407H526V686H656V0H526V295H206V0Z" fill="#6B7A73" transform="translate(667.71,542.40) scale(0.03000,-0.03000)"></path>
<path d="M5 0 272 686H436L704 0H563L508 146H194L139 0ZM235 256H466L397 442Q393 452 387.5 467.5Q382 483 376.0 501.5Q370 520 364.0 539.0Q358 558 353 573H348Q342 553 333.5 527.0Q325 501 317.0 478.0Q309 455 304 442Z" fill="#6B7A73" transform="translate(703.67,542.40) scale(0.03000,-0.03000)"></path>
<path d="M76 0V686H200L493 281Q498 275 505.0 264.5Q512 254 518.0 244.0Q524 234 526 228H531Q531 242 531.0 255.0Q531 268 531 281V686H656V0H533L239 408Q231 420 220.5 437.5Q210 455 206 462H201Q201 449 201.0 435.5Q201 422 201 408V0Z" fill="#6B7A73" transform="translate(738.94,542.40) scale(0.03000,-0.03000)"></path>
<path d="M76 0V686H206V368L510 686H669L403 408L674 0H520L315 317L206 221V0Z" fill="#6B7A73" transform="translate(794.90,542.40) scale(0.03000,-0.03000)"></path>
<path d="M76 0V686H206V0Z" fill="#6B7A73" transform="translate(829.75,542.40) scale(0.03000,-0.03000)"></path>
<path d="M244 0V574H25V686H594V574H374V0Z" fill="#6B7A73" transform="translate(852.21,542.40) scale(0.03000,-0.03000)"></path>
<path d="M76 0V686H611V575H206V406H567V295H206V111H617V0Z" fill="#6B7A73" transform="translate(884.78,542.40) scale(0.03000,-0.03000)"></path>
<path d="M332 -12Q275 -12 223.0 0.5Q171 13 131.0 39.5Q91 66 68.0 105.5Q45 145 45 199Q45 205 45.5 211.0Q46 217 46 220H177Q177 218 176.5 212.5Q176 207 176 203Q176 170 195.0 146.5Q214 123 250.0 110.5Q286 98 335 98Q368 98 393.5 102.0Q419 106 437.5 113.5Q456 121 468.0 131.5Q480 142 485.5 155.0Q491 168 491 183Q491 212 473.0 231.0Q455 250 424.5 263.0Q394 276 355.5 286.5Q317 297 276.5 308.0Q236 319 197.5 334.5Q159 350 128.5 372.0Q98 394 80.0 427.5Q62 461 62 508Q62 556 82.5 592.0Q103 628 140.5 651.5Q178 675 228.0 686.5Q278 698 337 698Q392 698 440.5 686.5Q489 675 526.0 650.5Q563 626 584.0 588.5Q605 551 605 499V487H476V497Q476 526 458.5 546.0Q441 566 409.5 577.0Q378 588 336 588Q291 588 259.0 579.5Q227 571 210.0 554.5Q193 538 193 514Q193 489 211.0 472.0Q229 455 259.5 443.0Q290 431 328.5 421.0Q367 411 407.5 399.5Q448 388 486.5 373.0Q525 358 555.5 335.5Q586 313 604.0 280.0Q622 247 622 201Q622 124 584.5 77.0Q547 30 481.5 9.0Q416 -12 332 -12Z" fill="#6B7A73" transform="translate(918.94,542.40) scale(0.03000,-0.03000)"></path>
</svg>